<svg xmlns="http://www.w3.org/2000/svg" viewBox="0 0 511 511"><path d="M470.962 102.751c-.018-.182-.049-.359-.08-.537-.011-.063-.016-.128-.029-.191a7.465 7.465 0 00-.155-.619c-.009-.03-.014-.061-.023-.091a7.439 7.439 0 00-.218-.608c-.011-.027-.019-.055-.03-.081a7.142 7.142 0 00-.261-.552c-.019-.037-.034-.075-.054-.112a7.01 7.01 0 00-.291-.486c-.03-.048-.057-.098-.088-.145-.101-.151-.213-.295-.324-.438-.039-.05-.073-.102-.113-.151a7.717 7.717 0 00-.493-.545L372.804 2.198a7.277 7.277 0 00-.545-.493c-.049-.04-.101-.074-.151-.113a7.277 7.277 0 00-.438-.324c-.047-.032-.097-.058-.145-.088a7.898 7.898 0 00-.486-.291c-.036-.02-.075-.035-.112-.054a7.51 7.51 0 00-.552-.261l-.081-.03a7.439 7.439 0 00-.608-.218c-.03-.009-.061-.015-.091-.023a7.469 7.469 0 00-.619-.156c-.063-.013-.128-.018-.191-.029-.178-.031-.355-.062-.537-.08A7.433 7.433 0 00367.5 0h-224C121.72 0 104 17.72 104 39.5V80H71.5C54.131 80 40 94.131 40 111.5v80c0 17.369 14.131 31.5 31.5 31.5H104v248.5c0 21.78 17.72 39.5 39.5 39.5h288c21.78 0 39.5-17.72 39.5-39.5v-368c0-.251-.013-.501-.038-.749zM375 25.606L445.394 96H399.5C385.991 96 375 85.009 375 71.5V25.606zM55 191.5v-80c0-9.098 7.402-16.5 16.5-16.5h224c9.098 0 16.5 7.402 16.5 16.5v80c0 9.098-7.402 16.5-16.5 16.5H111.519l-.019-.001-.019.001H71.5c-9.098 0-16.5-7.402-16.5-16.5zM431.5 496h-288c-13.509 0-24.5-10.991-24.5-24.5V223h176.5c17.369 0 31.5-14.131 31.5-31.5v-80c0-17.369-14.131-31.5-31.5-31.5H119V39.5c0-13.509 10.991-24.5 24.5-24.5H360v56.5c0 21.78 17.72 39.5 39.5 39.5H456v360.5c0 13.509-10.991 24.5-24.5 24.5z"/><path d="M311.5 328a7.51 7.51 0 00-7.5 7.5 7.51 7.51 0 007.5 7.5 7.51 7.51 0 007.5-7.5 7.51 7.51 0 00-7.5-7.5zM311.5 384c-1.97 0-3.91.8-5.3 2.2a7.528 7.528 0 00-2.2 5.3c0 1.97.8 3.91 2.2 5.3 1.39 1.4 3.33 2.2 5.3 2.2 1.97 0 3.91-.8 5.3-2.2 1.4-1.39 2.2-3.33 2.2-5.3 0-1.97-.8-3.91-2.2-5.3a7.528 7.528 0 00-5.3-2.2zM111.5 191c8.835 0 17.344-3.82 23.344-10.48a7.5 7.5 0 00-11.144-10.04c-3.207 3.56-7.539 5.52-12.199 5.52h-8c-9.098 0-16.5-7.402-16.5-16.5v-16c0-9.098 7.402-16.5 16.5-16.5h8c4.66 0 8.993 1.96 12.199 5.52a7.499 7.499 0 0010.592.552 7.499 7.499 0 00.552-10.592c-6-6.66-14.508-10.48-23.344-10.48h-8C86.131 112 72 126.131 72 143.5v16c0 17.369 14.131 31.5 31.5 31.5h8zM159.5 159H176v16.5a7.5 7.5 0 0015 0V159h16.5a7.5 7.5 0 000-15H191v-16.5a7.5 7.5 0 00-15 0V144h-16.5a7.5 7.5 0 000 15zM239.5 159H256v16.5a7.5 7.5 0 0015 0V159h16.5a7.5 7.5 0 000-15H271v-16.5a7.5 7.5 0 00-15 0V144h-16.5a7.5 7.5 0 000 15zM247.5 311h8c7.109 0 13.858 2.251 19.519 6.511a7.5 7.5 0 0010.502-1.483 7.499 7.499 0 00-1.483-10.502c-8.281-6.232-18.15-9.526-28.539-9.526h-8c-30.603 0-55.5 24.897-55.5 55.5v24c0 30.603 24.897 55.5 55.5 55.5h8c10.375 0 20.232-3.286 28.507-9.502a7.5 7.5 0 00-9.009-11.993C269.341 413.754 262.599 416 255.5 416h-8c-22.332 0-40.5-18.168-40.5-40.5v-24c0-22.332 18.168-40.5 40.5-40.5zM334.615 285.128a7.5 7.5 0 10-14.231 4.743l48 144a7.503 7.503 0 007.114 5.13 7.501 7.501 0 007.117-9.874l-48-143.999z"/></svg>