<svg width="50" xmlns="http://www.w3.org/2000/svg" viewBox="0 0 479 479"><path fill="#dd7564" d="M278.908 246.057l82.667-114.158a7.5 7.5 0 00-10.473-10.473l-114.158 82.667C216.351 205.416 200 222.58 200 243.5c0 21.78 17.72 39.5 39.5 39.5 20.92 0 38.085-16.351 39.408-36.943zm-4.004-20.046a39.75 39.75 0 00-17.915-17.915l64.944-47.028-47.029 64.943zM215 243.5c0-13.509 10.991-24.5 24.5-24.5s24.5 10.991 24.5 24.5-10.991 24.5-24.5 24.5-24.5-10.991-24.5-24.5z"/><path fill="#dd7564" d="M478.996 243.424a248.032 248.032 0 00-.216-10.297c-1.172-27.675-7.203-54.697-17.614-79.992a7.489 7.489 0 00-.397-1.288 7.528 7.528 0 00-.697-1.301c-11.622-27.317-28.374-52.56-49.682-74.34-.053-.055-.108-.107-.162-.162a7.483 7.483 0 00-3.279-3.276c-21.872-21.487-47.282-38.378-74.83-50.044a7.513 7.513 0 00-.967-.495 7.693 7.693 0 00-.96-.316c-23.8-9.832-49.156-15.785-75.185-17.426a248.965 248.965 0 00-15.199-.474c-.103-.002-.204-.013-.308-.013-.107 0-.212.012-.318.016-28.356.024-56.064 4.941-82.563 14.714-30.191 11.137-57.451 28.006-81.024 50.14a246.967 246.967 0 00-5.291 5.137c-.051.049-.106.091-.156.141-.063.063-.117.131-.177.195-20.95 20.971-37.631 45.286-49.619 72.397C6.847 177.284 0 209.838 0 243.5c0 48.145 14.272 94.6 41.274 134.344C48.573 388.586 60.778 395 73.921 395H87.5a7.5 7.5 0 000-15H73.921c-8.17 0-15.736-3.958-20.24-10.586A224.501 224.501 0 0135.06 336.3l22.534-9.334a7.5 7.5 0 00-5.74-13.858l-22.543 9.338C20.749 299.701 15.942 275.629 15.13 251H39.5a7.5 7.5 0 000-15H15.136c.8-24.642 5.541-48.597 14.146-71.457l22.572 9.35a7.472 7.472 0 002.867.573 7.503 7.503 0 002.873-14.431l-22.556-9.343c10.16-22.358 23.749-42.659 40.508-60.539l17.229 17.229c1.464 1.464 3.384 2.197 5.303 2.197s3.839-.732 5.303-2.197a7.5 7.5 0 000-10.606L86.149 79.542c18.176-17.009 38.575-30.621 60.502-40.602l9.384 22.654a7.504 7.504 0 006.932 4.632 7.5 7.5 0 006.926-10.372l-9.384-22.655c22.665-8.508 46.727-13.287 71.491-14.075V43.5a7.5 7.5 0 0015 0V19.133c2.351.077 4.704.178 7.064.327a220.537 220.537 0 0164.354 13.917l-9.31 22.477a7.5 7.5 0 1013.858 5.74l9.289-22.425c21.952 10.066 42.347 23.734 60.35 40.619l-16.987 16.987a7.5 7.5 0 005.303 12.803 7.474 7.474 0 005.303-2.197l16.984-16.984c16.872 18.031 30.513 38.436 40.569 60.369l-22.372 9.267a7.5 7.5 0 005.74 13.858l22.424-9.289c8.356 22.019 13.215 45.332 14.224 69.158.032.747.048 1.492.073 2.238H439.5a7.5 7.5 0 000 15h24.373c-.802 24.664-5.584 48.709-14.158 71.456l-22.57-9.349a7.5 7.5 0 00-5.74 13.858l22.544 9.338a225.272 225.272 0 01-18.633 33.112c-4.502 6.63-12.068 10.587-20.237 10.587H391.5a7.5 7.5 0 000 15h13.579c13.144 0 25.347-6.413 32.646-17.154 27.098-39.884 41.265-86.095 41.271-134.246 0-.034.005-.066.005-.1-.001-.026-.005-.051-.005-.076z"/><path fill="#dd7564" d="M327.5 300h-176c-21.78 0-39.5 17.72-39.5 39.5v96c0 21.78 17.72 39.5 39.5 39.5h176c21.78 0 39.5-17.72 39.5-39.5v-96c0-21.78-17.72-39.5-39.5-39.5zM352 435.5c0 13.509-10.991 24.5-24.5 24.5h-176c-13.509 0-24.5-10.991-24.5-24.5v-96c0-13.509 10.991-24.5 24.5-24.5h176c13.509 0 24.5 10.991 24.5 24.5v96z"/><path fill="#dd7564" d="M204.803 342.197a7.5 7.5 0 00-10.606 0l-40 40a7.5 7.5 0 000 10.606l40 40c1.464 1.464 3.384 2.197 5.303 2.197s3.839-.732 5.303-2.197a7.5 7.5 0 000-10.606L170.106 387.5l34.697-34.697a7.5 7.5 0 000-10.606zm80 0a7.5 7.5 0 00-10.606 0 7.5 7.5 0 000 10.606l34.697 34.697-34.697 34.697A7.5 7.5 0 00279.5 435a7.474 7.474 0 005.303-2.197l40-40a7.5 7.5 0 000-10.606l-40-40zM239.5 396c-1.97 0-3.91.8-5.3 2.2a7.528 7.528 0 00-2.2 5.3c0 1.97.8 3.91 2.2 5.3 1.39 1.4 3.33 2.2 5.3 2.2 1.97 0 3.91-.8 5.3-2.2 1.4-1.39 2.2-3.33 2.2-5.3 0-1.97-.8-3.91-2.2-5.3a7.528 7.528 0 00-5.3-2.2zm24 0c-1.97 0-3.91.8-5.3 2.2a7.528 7.528 0 00-2.2 5.3c0 1.97.8 3.91 2.2 5.3 1.39 1.4 3.33 2.2 5.3 2.2 1.97 0 3.91-.8 5.3-2.2 1.4-1.39 2.2-3.33 2.2-5.3a7.51 7.51 0 00-7.5-7.5zm-48 0c-1.97 0-3.91.8-5.3 2.2a7.528 7.528 0 00-2.2 5.3c0 1.97.8 3.91 2.2 5.3 1.39 1.4 3.33 2.2 5.3 2.2 1.97 0 3.91-.8 5.3-2.2 1.4-1.39 2.2-3.33 2.2-5.3 0-1.97-.8-3.91-2.2-5.3a7.528 7.528 0 00-5.3-2.2z"/></svg>