<svg width="50" xmlns="http://www.w3.org/2000/svg" viewBox="0 0 511 511"><path fill="#dd7564" d="M487.5 51.999h-464c-12.958 0-23.5 10.542-23.5 23.5v304c0 12.958 10.542 23.5 23.5 23.5h158.057l-11.714 41H135.5a7.5 7.5 0 000 15h39.976l.028.002.024-.002h159.944l.024.002.028-.002H375.5a7.5 7.5 0 000-15h-34.343l-11.714-41H487.5c12.958 0 23.5-10.542 23.5-23.5v-304c0-12.958-10.542-23.5-23.5-23.5zm-161.943 392H185.443l11.714-41h116.686l11.714 41zM496 379.499c0 4.687-3.813 8.5-8.5 8.5h-464c-4.687 0-8.5-3.813-8.5-8.5v-304c0-4.687 3.813-8.5 8.5-8.5h464c4.687 0 8.5 3.813 8.5 8.5v304z"/><path fill="#dd7564" d="M471.5 83.999h-432a7.5 7.5 0 00-7.5 7.5v272a7.5 7.5 0 007.5 7.5h432a7.5 7.5 0 007.5-7.5v-272a7.5 7.5 0 00-7.5-7.5zm-7.5 15v49H47v-49h417zm-417 257v-193h417v193H47z"/><path fill="#dd7564" d="M151.5 130.999h240a7.5 7.5 0 000-15h-240a7.5 7.5 0 000 15zm272 0h16a7.5 7.5 0 000-15h-16a7.5 7.5 0 000 15zm-352 0c1.97 0 3.91-.8 5.3-2.2 1.4-1.39 2.2-3.33 2.2-5.3 0-1.97-.8-3.91-2.2-5.3a7.528 7.528 0 00-5.3-2.2c-1.97 0-3.91.8-5.3 2.2a7.528 7.528 0 00-2.2 5.3c0 1.97.8 3.91 2.2 5.3 1.39 1.4 3.33 2.2 5.3 2.2zm24 0c1.97 0 3.91-.8 5.3-2.2 1.4-1.39 2.2-3.33 2.2-5.3 0-1.97-.8-3.91-2.2-5.3a7.528 7.528 0 00-5.3-2.2 7.51 7.51 0 00-7.5 7.5c0 1.97.8 3.91 2.2 5.3 1.39 1.4 3.33 2.2 5.3 2.2zm24 0c1.97 0 3.91-.8 5.3-2.2 1.4-1.39 2.2-3.33 2.2-5.3 0-1.97-.8-3.91-2.2-5.3a7.528 7.528 0 00-5.3-2.2c-1.97 0-3.91.8-5.3 2.2a7.528 7.528 0 00-2.2 5.3c0 1.97.8 3.91 2.2 5.3 1.39 1.4 3.33 2.2 5.3 2.2zm-18.697 67.197a7.5 7.5 0 00-10.606 0 7.5 7.5 0 000 10.606l50.697 50.697-50.697 50.697a7.5 7.5 0 005.303 12.803 7.474 7.474 0 005.303-2.197l56-56a7.5 7.5 0 000-10.606l-56-56zM247.5 307.999h-80a7.5 7.5 0 000 15h80a7.5 7.5 0 000-15z"/></svg>