<svg width="50" xmlns="http://www.w3.org/2000/svg" viewBox="0 0 511 511"><path fill="#dd7564" d="M504.117 44.824l-33.941-33.941A23.35 23.35 0 00453.559 4a23.348 23.348 0 00-16.617 6.883l-203.029 203.03a7.505 7.505 0 00-1.89 3.179l-23.716 80.284a7.501 7.501 0 009.318 9.318l80.284-23.716a7.5 7.5 0 003.179-1.89l203.029-203.03A23.348 23.348 0 00511 61.441a23.35 23.35 0 00-6.883-16.617zM295.784 265.177L278.106 247.5 451.5 74.106l17.678 17.678-173.394 173.393zM267.5 236.894l-17.677-17.677L423.216 45.822 440.894 63.5 267.5 236.894zm-24.666-3.453l38.725 38.725-54.96 16.235 16.235-54.96zM493.51 67.452l-13.726 13.726-45.962-45.962 13.726-13.726c3.315-3.315 8.707-3.314 12.021 0l33.941 33.941c3.314 3.314 3.314 8.706 0 12.021zM116.803 326.197a7.5 7.5 0 00-10.606 0l-56 56a7.5 7.5 0 000 10.606l56 56c1.464 1.464 3.384 2.197 5.303 2.197s3.839-.732 5.303-2.197a7.5 7.5 0 000-10.606L66.106 387.5l50.697-50.697a7.5 7.5 0 000-10.606zm85.394 122.606c1.464 1.464 3.384 2.197 5.303 2.197s3.839-.732 5.303-2.197l56-56a7.5 7.5 0 000-10.606l-56-56a7.5 7.5 0 00-10.606 0 7.5 7.5 0 000 10.606l50.697 50.697-50.697 50.697a7.5 7.5 0 000 10.606z"/><path fill="#dd7564" d="M311.5 300a7.5 7.5 0 00-7.5 7.5v160c0 13.509-10.991 24.5-24.5 24.5h-240C25.991 492 15 481.009 15 467.5v-160c0-13.509 10.991-24.5 24.5-24.5h144a7.5 7.5 0 000-15h-144C17.72 268 0 285.72 0 307.5v160C0 489.28 17.72 507 39.5 507h240c21.78 0 39.5-17.72 39.5-39.5v-160a7.5 7.5 0 00-7.5-7.5z"/><path fill="#dd7564" d="M122.2 406.2a7.528 7.528 0 00-2.2 5.3c0 1.97.8 3.91 2.2 5.3 1.39 1.4 3.33 2.2 5.3 2.2 1.97 0 3.91-.8 5.3-2.2 1.4-1.39 2.2-3.33 2.2-5.3 0-1.97-.8-3.91-2.2-5.3a7.528 7.528 0 00-5.3-2.2c-1.97 0-3.91.8-5.3 2.2zm61.8 5.3c0 1.97.8 3.91 2.2 5.3 1.39 1.4 3.33 2.2 5.3 2.2 1.97 0 3.91-.8 5.3-2.2 1.4-1.39 2.2-3.33 2.2-5.3 0-1.97-.8-3.91-2.2-5.3a7.528 7.528 0 00-5.3-2.2c-1.97 0-3.91.8-5.3 2.2a7.528 7.528 0 00-2.2 5.3zm-29.8-5.3a7.528 7.528 0 00-2.2 5.3c0 1.97.8 3.91 2.2 5.3 1.39 1.4 3.33 2.2 5.3 2.2 1.97 0 3.91-.8 5.3-2.2 1.4-1.39 2.2-3.33 2.2-5.3 0-1.97-.8-3.91-2.2-5.3a7.528 7.528 0 00-5.3-2.2c-1.97 0-3.91.8-5.3 2.2z"/></svg>