<svg width="50" xmlns="http://www.w3.org/2000/svg" viewBox="0 0 511 511"><path fill="#dd7564" d="M471.5 56h-432C17.72 56 0 73.72 0 95.5v320C0 437.28 17.72 455 39.5 455h432c21.78 0 39.5-17.72 39.5-39.5v-320c0-21.78-17.72-39.5-39.5-39.5zm-432 15h432c13.509 0 24.5 10.991 24.5 24.5V120H15V95.5C15 81.991 25.991 71 39.5 71zm432 369h-432C25.991 440 15 429.009 15 415.5V135h481v280.5c0 13.509-10.991 24.5-24.5 24.5z"/><path fill="#dd7564" d="M39.5 103c1.97 0 3.91-.8 5.3-2.2 1.4-1.39 2.2-3.33 2.2-5.3s-.8-3.91-2.2-5.3a7.528 7.528 0 00-5.3-2.2c-1.97 0-3.91.8-5.3 2.2-1.4 1.39-2.2 3.33-2.2 5.3s.8 3.91 2.2 5.3c1.39 1.4 3.33 2.2 5.3 2.2zm24 0c1.97 0 3.91-.8 5.3-2.2 1.4-1.39 2.2-3.33 2.2-5.3s-.8-3.91-2.2-5.3a7.528 7.528 0 00-5.3-2.2c-1.97 0-3.91.8-5.3 2.2-1.4 1.39-2.2 3.33-2.2 5.3s.8 3.91 2.2 5.3c1.39 1.4 3.33 2.2 5.3 2.2zm24 0c1.97 0 3.91-.8 5.3-2.2 1.4-1.39 2.2-3.33 2.2-5.3s-.8-3.91-2.2-5.3a7.528 7.528 0 00-5.3-2.2c-1.97 0-3.91.8-5.3 2.2-1.4 1.39-2.2 3.33-2.2 5.3s.8 3.91 2.2 5.3c1.39 1.4 3.33 2.2 5.3 2.2zm202.274 89.353a7.502 7.502 0 00-9.421 4.873l-56 176a7.5 7.5 0 0014.294 4.548l56-176a7.5 7.5 0 00-4.873-9.421zm35.029 17.844a7.5 7.5 0 00-10.606 0 7.5 7.5 0 000 10.606l66.697 66.697-66.697 66.697A7.5 7.5 0 00319.5 367a7.474 7.474 0 005.303-2.197l72-72a7.5 7.5 0 000-10.606l-72-72zm-120 0a7.5 7.5 0 00-10.606 0l-72 72a7.5 7.5 0 000 10.606l72 72c1.464 1.464 3.384 2.197 5.303 2.197s3.839-.732 5.303-2.197a7.5 7.5 0 000-10.606L138.106 287.5l66.697-66.697a7.5 7.5 0 000-10.606zM119.5 103h304a7.5 7.5 0 000-15h-304a7.5 7.5 0 000 15zm336 0h16a7.5 7.5 0 000-15h-16a7.5 7.5 0 000 15z"/></svg>